<svg t="1688358271493" class="icon" viewBox="0 0 1024 1024" version="1.1" xmlns="http://www.w3.org/2000/svg" p-id="1480" width="200" height="200"><path d="M337.066667 443.733333c-12.8 0-21.333333-8.533333-21.333334-21.333333V384c0-59.733333 46.933333-106.666667 106.666667-106.666667h290.133333c17.066667 0 29.866667-12.8 29.866667-29.866666 0-17.066667-12.8-29.866667-29.866667-29.866667h-149.333333c-42.666667 0-72.533333-34.133333-72.533333-72.533333 0-12.8 8.533333-21.333333 21.333333-21.333334s21.333333 8.533333 21.333333 21.333334c0 17.066667 12.8 29.866667 29.866667 29.866666h149.333333c42.666667 0 72.533333 34.133333 72.533334 72.533334 0 42.666667-34.133333 72.533333-72.533334 72.533333H422.4c-34.133333 0-64 29.866667-64 64v38.4c0 8.533333-8.533333 21.333333-21.333333 21.333333z" fill="#4F2AB5" p-id="1481"></path><path d="M170.666667 469.333333h682.666666c46.933333 0 85.333333 38.4 85.333334 85.333334v256c0 46.933333-38.4 85.333333-85.333334 85.333333H170.666667c-46.933333 0-85.333333-38.4-85.333334-85.333333v-256c0-46.933333 38.4-85.333333 85.333334-85.333334z" fill="#A02D67" p-id="1482"></path><path d="M170.666667 384h682.666666c46.933333 0 85.333333 38.4 85.333334 85.333333v256c0 46.933333-38.4 85.333333-85.333334 85.333334H170.666667c-46.933333 0-85.333333-38.4-85.333334-85.333334v-256c0-46.933333 38.4-85.333333 85.333334-85.333333z" fill="#D04C83" p-id="1483"></path><path d="M853.333333 832H170.666667c-59.733333 0-106.666667-46.933333-106.666667-106.666667v-256c0-59.733333 46.933333-106.666667 106.666667-106.666666h682.666666c59.733333 0 106.666667 46.933333 106.666667 106.666666v256c0 59.733333-46.933333 106.666667-106.666667 106.666667zM170.666667 405.333333c-34.133333 0-64 29.866667-64 64v256c0 34.133333 29.866667 64 64 64h682.666666c34.133333 0 64-29.866667 64-64v-256c0-34.133333-29.866667-64-64-64H170.666667z" fill="#301196" p-id="1484"></path><path d="M853.333333 917.333333H170.666667c-59.733333 0-106.666667-46.933333-106.666667-106.666666v-341.333334c0-59.733333 46.933333-106.666667 106.666667-106.666666h682.666666c59.733333 0 106.666667 46.933333 106.666667 106.666666v341.333334c0 59.733333-46.933333 106.666667-106.666667 106.666666zM170.666667 405.333333c-34.133333 0-64 29.866667-64 64v341.333334c0 34.133333 29.866667 64 64 64h682.666666c34.133333 0 64-29.866667 64-64v-341.333334c0-34.133333-29.866667-64-64-64H170.666667z" fill="#301196" p-id="1485"></path><path d="M913.066667 469.333333v256c0 34.133333-25.6 59.733333-59.733334 59.733334H170.666667c-34.133333 0-59.733333-25.6-59.733334-59.733334v-256c0-34.133333 25.6-59.733333 59.733334-59.733333h682.666666c34.133333 0 59.733333 25.6 59.733334 59.733333z" fill="#D86097" p-id="1486"></path><path d="M776.533333 665.6h59.733334c8.533333 0 17.066667 8.533333 17.066666 17.066667v59.733333c0 8.533333-8.533333 17.066667-17.066666 17.066667h-59.733334c-8.533333 0-17.066667-8.533333-17.066666-17.066667V682.666667c0-8.533333 8.533333-17.066667 17.066666-17.066667z" fill="#4F2AB5" p-id="1487"></path><path d="M806.4 712.533333m-34.133333 0a34.133333 34.133333 0 1 0 68.266666 0 34.133333 34.133333 0 1 0-68.266666 0Z" fill="#EDC35B" p-id="1488"></path><path d="M657.066667 665.6h59.733333c8.533333 0 17.066667 8.533333 17.066667 17.066667v59.733333c0 8.533333-8.533333 17.066667-17.066667 17.066667h-59.733333c-8.533333 0-17.066667-8.533333-17.066667-17.066667V682.666667c0-8.533333 8.533333-17.066667 17.066667-17.066667zM409.6 665.6h179.2c8.533333 0 17.066667 8.533333 17.066667 17.066667v59.733333c0 8.533333-8.533333 17.066667-17.066667 17.066667H409.6c-8.533333 0-17.066667-8.533333-17.066667-17.066667V682.666667c0-8.533333 8.533333-17.066667 17.066667-17.066667z" fill="#4F2AB5" p-id="1489"></path><path d="M686.933333 712.533333m-34.133333 0a34.133333 34.133333 0 1 0 68.266667 0 34.133333 34.133333 0 1 0-68.266667 0Z" fill="#6ED6AB" p-id="1490"></path><path d="M256 768c-29.866667 0-51.2-21.333333-51.2-51.2v-8.533333h-8.533333c-29.866667 0-51.2-21.333333-51.2-51.2s21.333333-51.2 51.2-51.2h8.533333V597.333333c0-29.866667 21.333333-51.2 51.2-51.2s51.2 21.333333 51.2 51.2v8.533334h8.533333c29.866667 0 51.2 21.333333 51.2 51.2s-21.333333 51.2-51.2 51.2h-8.533333v8.533333c0 29.866667-21.333333 51.2-51.2 51.2z" fill="#4F2AB5" p-id="1491"></path><path d="M315.733333 631.466667h-34.133333V597.333333c0-12.8-12.8-25.6-25.6-25.6s-25.6 12.8-25.6 25.6v34.133334h-34.133333c-12.8 0-25.6 12.8-25.6 25.6s12.8 25.6 25.6 25.6h34.133333v34.133333c0 12.8 12.8 25.6 25.6 25.6s25.6-12.8 25.6-25.6V682.666667h34.133333c12.8 0 25.6-12.8 25.6-25.6s-12.8-25.6-25.6-25.6z" fill="#EDC35B" p-id="1492"></path><path d="M426.666667 691.2h42.666666c12.8 0 21.333333 8.533333 21.333334 21.333333s-8.533333 21.333333-21.333334 21.333334h-42.666666c-12.8 0-21.333333-8.533333-21.333334-21.333334s8.533333-21.333333 21.333334-21.333333zM529.066667 691.2h42.666666c12.8 0 21.333333 8.533333 21.333334 21.333333s-8.533333 21.333333-21.333334 21.333334h-42.666666c-12.8 0-21.333333-8.533333-21.333334-21.333334s8.533333-21.333333 21.333334-21.333333z" fill="#301196" p-id="1493"></path><path d="M401.066667 469.333333h192c4.266667 0 12.8 4.266667 12.8 12.8v29.866667c0 4.266667-4.266667 12.8-12.8 12.8H401.066667c-4.266667 0-12.8-4.266667-12.8-12.8v-29.866667c4.266667-8.533333 8.533333-12.8 12.8-12.8zM401.066667 533.333333h192c4.266667 0 12.8 4.266667 12.8 12.8v29.866667c0 4.266667-4.266667 12.8-12.8 12.8H401.066667c-4.266667 0-12.8-4.266667-12.8-12.8v-29.866667c4.266667-8.533333 8.533333-12.8 12.8-12.8zM401.066667 601.6h192c4.266667 0 12.8 4.266667 12.8 12.8v25.6c0 4.266667-4.266667 12.8-12.8 12.8H401.066667c-4.266667 0-12.8-4.266667-12.8-12.8v-29.866667c4.266667-4.266667 8.533333-8.533333 12.8-8.533333z" fill="#D04C83" p-id="1494"></path></svg>